<?xml version="1.0" standalone="no"?>
<!DOCTYPE svg PUBLIC "-//W3C//DTD SVG 20010904//EN"
 "http://www.w3.org/TR/2001/REC-SVG-20010904/DTD/svg10.dtd">
<svg version="1.0" xmlns="http://www.w3.org/2000/svg"
 width="1280.000000pt" height="771.000000pt" viewBox="0 0 1280.000000 771.000000"
 preserveAspectRatio="xMidYMid meet">
<metadata>
Created by potrace 1.15, written by Peter Selinger 2001-2017
</metadata>
<g transform="translate(0.000000,771.000000) scale(0.100000,-0.100000)"
fill="#000000" stroke="none">
<path d="M2285 7691 c-313 -59 -636 -179 -854 -318 -75 -48 -234 -230 -292
-333 -22 -39 -24 -40 -78 -40 -158 0 -465 -67 -716 -157 -113 -40 -338 -134
-333 -138 4 -4 194 -19 518 -40 217 -15 368 -32 478 -57 52 -11 53 -12 92 -87
46 -89 117 -178 192 -242 29 -25 130 -87 223 -138 215 -118 329 -196 402 -275
92 -98 129 -189 183 -448 88 -431 89 -433 149 -570 261 -596 529 -1007 890
-1369 324 -324 619 -540 1487 -1087 l161 -102 234 -64 c553 -153 1090 -270
1439 -316 47 -6 97 -13 112 -16 l27 -5 -15 -48 c-21 -73 -32 -168 -23 -214 6
-37 1 -55 -60 -186 -37 -81 -92 -201 -121 -268 -44 -98 -58 -121 -72 -117 -32
10 -117 6 -155 -6 -21 -7 -60 -27 -87 -45 -52 -35 -248 -206 -242 -212 2 -2
29 8 61 21 95 43 214 76 291 83 42 3 74 2 74 -3 0 -5 -19 -50 -42 -100 l-42
-92 -103 -34 -103 -34 -113 23 c-61 13 -157 26 -212 30 -94 5 -104 4 -150 -20
-28 -14 -78 -53 -112 -88 -64 -66 -206 -248 -182 -233 8 4 45 28 82 52 195
125 334 155 495 107 l52 -16 -17 -25 c-11 -16 -95 -64 -223 -128 -191 -97
-207 -107 -239 -152 -19 -27 -54 -78 -80 -114 -25 -35 -39 -60 -31 -55 8 5 44
28 80 51 162 104 384 195 620 254 199 50 224 53 303 40 294 -46 403 -72 526
-126 30 -13 56 -22 59 -20 11 12 -91 202 -127 236 -39 37 -50 41 -268 106 -51
15 -93 30 -93 34 0 27 49 36 288 50 l153 9 174 -59 c183 -62 302 -116 397
-181 38 -25 58 -34 58 -25 0 25 -50 187 -70 226 -27 53 -63 78 -214 149 -72
34 -132 64 -134 66 -3 3 31 42 74 87 44 46 183 209 310 363 249 301 370 435
394 435 40 0 147 65 214 129 l71 69 90 17 c296 55 633 162 984 312 l154 66
326 -93 c291 -83 337 -94 428 -98 125 -6 182 8 229 54 36 36 60 121 48 169
l-7 26 123 -7 123 -7 411 -192 c450 -210 753 -355 1032 -492 208 -103 293
-127 444 -127 112 0 166 18 176 58 10 43 -3 72 -63 136 l-57 62 40 -9 c21 -4
80 -8 131 -8 84 0 94 2 118 25 52 48 19 115 -119 247 -61 59 -273 211 -846
607 -421 290 -771 534 -778 541 -11 10 -5 21 38 61 83 78 83 79 -6 120 -43 19
-143 82 -223 138 -1415 999 -3350 1991 -5121 2626 -466 166 -912 306 -1298
406 -203 53 -218 58 -300 111 -287 185 -396 300 -583 616 -142 241 -143 242
-194 277 -65 45 -176 95 -280 127 -88 26 -96 27 -385 29 -252 3 -309 0 -395
-15z m5100 -5881 c1 -23 -7 -46 -23 -69 -14 -18 -136 -198 -271 -400 -303
-449 -304 -450 -316 -451 -18 -1 -215 72 -211 79 291 515 348 602 416 636 60
30 127 97 182 181 l43 65 89 -3 89 -3 2 -35z m-905 -1010 c0 -5 -5 -10 -11
-10 -5 0 -7 5 -4 10 3 6 8 10 11 10 2 0 4 -4 4 -10z"/>
</g>
</svg>
